<?xml version="1.0" encoding="iso-8859-1"?>
<!-- Generator: Adobe Illustrator 19.0.0, SVG Export Plug-In . SVG Version: 6.00 Build 0)  -->
<svg version="1.1" id="Layer_1" xmlns="http://www.w3.org/2000/svg" xmlns:xlink="http://www.w3.org/1999/xlink" x="0px" y="0px"
	 viewBox="0 0 490.667 490.667" style="enable-background:new 0 0 490.667 490.667;" xml:space="preserve">
<g>
	<g>
		<g>
			<path d="M255.999,138.667L255.999,138.667c0-5.888-4.778-10.667-10.666-10.667C180.629,128.001,128,180.63,128,245.334
				c0,5.888,4.779,10.666,10.667,10.666s10.667-4.778,10.667-10.666c0-52.928,43.072-96,96-96
				C251.221,149.334,255.999,144.555,255.999,138.667z"/>
			<path d="M138.667,469.333c-64.704,0-117.333-52.63-117.333-117.333c0-5.888-4.779-10.667-10.667-10.667S0,346.112,0,352
				c0,76.458,62.208,138.667,138.667,138.667c5.888,0,10.667-4.779,10.667-10.667S144.555,469.333,138.667,469.333z"/>
			<path d="M138.667,426.667L138.667,426.667C97.493,426.667,64,393.173,64,352c0-5.888-4.779-10.667-10.667-10.667
				S42.667,346.112,42.667,352c0,52.928,43.072,96,96,96c5.888,0,10.667-4.779,10.667-10.667S144.555,426.667,138.667,426.667z"/>
			<path d="M352,0c-5.888,0-10.667,4.779-10.667,10.667S346.112,21.333,352,21.333c64.704,0,117.333,52.629,117.333,117.334
				c0,5.888,4.779,10.667,10.667,10.667s10.667-4.779,10.667-10.667C490.666,62.208,428.458,0,352,0z"/>
			<path d="M426.666,138.667L426.666,138.667c0,5.888,4.779,10.667,10.667,10.667S448,144.555,448,138.667c0-52.928-43.072-96-96-96
				c-5.888,0-10.667,4.779-10.667,10.667S346.112,64,352,64C393.173,64,426.666,97.493,426.666,138.667z"/>
			<path d="M405.333,245.334c0-88.234-71.766-160-160-160s-160,71.766-160,160s71.766,160,160,160S405.333,333.568,405.333,245.334z
				 M245.333,384c-76.458,0-138.667-62.208-138.667-138.666s62.208-138.667,138.667-138.667S384,168.875,384,245.334
				S321.792,384,245.333,384z"/>
			<path d="M458.667,256c-17.643,0-32,14.357-32,32c0,10.88,5.632,20.544,14.443,26.261
				c-16.81,61.611-65.237,110.016-126.826,126.827c-5.718-8.79-15.403-14.422-26.283-14.422c-17.643,0-32,14.357-32,32
				c0,5.888,4.779,10.667,10.667,10.667c14.315,0,29.013-1.664,43.669-4.885c0.128-0.022,0.234-0.022,0.362-0.043
				c76.416-16.96,136.747-77.29,153.707-153.706v-0.021c3.264-14.742,4.928-29.568,4.928-44.01
				C469.333,260.779,464.555,256,458.667,256z"/>
			<path d="M245.333,213.334c-17.643,0-32,14.357-32,32s14.357,32,32,32s32-14.357,32-32S262.976,213.334,245.333,213.334z
				 M245.333,256c-5.888,0-10.667-4.778-10.667-10.666s4.779-10.667,10.667-10.667S256,239.446,256,245.334S251.221,256,245.333,256
				z"/>
		</g>
	</g>
</g>
<g>
</g>
<g>
</g>
<g>
</g>
<g>
</g>
<g>
</g>
<g>
</g>
<g>
</g>
<g>
</g>
<g>
</g>
<g>
</g>
<g>
</g>
<g>
</g>
<g>
</g>
<g>
</g>
<g>
</g>
</svg>
