<?xml version="1.0" encoding="iso-8859-1"?>
<!-- Generator: Adobe Illustrator 19.0.0, SVG Export Plug-In . SVG Version: 6.00 Build 0)  -->
<svg version="1.1" id="Capa_1" xmlns="http://www.w3.org/2000/svg" xmlns:xlink="http://www.w3.org/1999/xlink" x="0px" y="0px"
	 viewBox="0 0 480 480" style="enable-background:new 0 0 480 480;" xml:space="preserve">
<g>
	<g>
		<path d="M472,104H320V48c0-4.418-3.582-8-8-8H160c-4.418,0-8,3.582-8,8v56H8c-4.418,0-8,3.582-8,8v320c0,4.418,3.582,8,8,8h464
			c4.418,0,8-3.582,8-8V112C480,107.582,476.418,104,472,104z M168,56h136v48h-16V80c0-4.418-3.582-8-8-8h-88c-4.418,0-8,3.582-8,8
			v24h-16V56z M272,88v16h-72V88H272z M464,424H16V251.312l18.344,18.344c1.5,1.5,3.534,2.344,5.656,2.344h160v56
			c0,4.418,3.582,8,8,8h64c4.418,0,8-3.582,8-8v-56h160c2.122,0,4.156-0.844,5.656-2.344L464,251.312V424z M240,304
			c4.418,0,8-3.582,8-8v-24h16v48h-48v-48h16v24C232,300.418,235.582,304,240,304z M464,200v28.688L436.688,256H43.312L16,228.688
			V120h448V200z"/>
	</g>
</g>
<g>
	<g>
		<path d="M445.656,394.344l-16-16c-1.5-1.5-3.534-2.344-5.656-2.344H56c-2.122,0-4.156,0.844-5.656,2.344l-16,16
			c-3.07,3.178-2.982,8.242,0.196,11.312c3.1,2.994,8.016,2.994,11.116,0L59.312,392h361.376l13.656,13.656
			c3.178,3.07,8.242,2.982,11.312-0.196C448.651,402.36,448.651,397.444,445.656,394.344z"/>
	</g>
</g>
<g>
</g>
<g>
</g>
<g>
</g>
<g>
</g>
<g>
</g>
<g>
</g>
<g>
</g>
<g>
</g>
<g>
</g>
<g>
</g>
<g>
</g>
<g>
</g>
<g>
</g>
<g>
</g>
<g>
</g>
</svg>
