<?xml version="1.0" standalone="no"?>
<!DOCTYPE svg PUBLIC "-//W3C//DTD SVG 1.1//EN" "http://www.w3.org/Graphics/SVG/1.1/DTD/svg11.dtd" >
<svg xmlns="http://www.w3.org/2000/svg">
<metadata>Generated by IcoMoon</metadata>
<defs>
<font id="icomoon" horiz-adv-x="1024">
<font-face units-per-em="1024" ascent="960" descent="-64" />
<missing-glyph horiz-adv-x="1024" />
<glyph unicode="&#x20;" horiz-adv-x="512" d="" />
<glyph unicode="&#xe900;" glyph-name="add" d="M903.534 569.905h-269.629v269.629c0 66.243-55.637 120.466-121.905 120.466s-121.905-54.223-121.905-120.466v-269.629h-269.629c-66.243 0-120.466-55.637-120.466-121.905s54.223-121.905 120.466-121.905h269.629v-269.629c0-66.243 55.637-120.466 121.905-120.466s121.905 54.223 121.905 120.466v269.629h269.629c66.243 0 120.466 55.637 120.466 121.905s-54.223 121.905-120.466 121.905z" />
<glyph unicode="&#xe901;" glyph-name="calendar" d="M757.389 880.552c-8.21 40.236-43.855 70.621-86.493 70.621-9.746 0-17.655-7.892-17.655-17.655s7.91-17.655 17.655-17.655c29.202 0 52.966-23.764 52.966-52.966s-23.764-52.966-52.966-52.966c-9.746 0-17.655-7.892-17.655-17.655s7.91-17.655 17.655-17.655c42.62 0 78.283 30.385 86.493 70.621h231.3v-158.897h-953.379v158.897h300.138c9.746 0 17.655 7.892 17.655 17.655s-7.91 17.655-17.655 17.655h-32.062c7.309 20.515 26.73 35.31 49.717 35.31 29.202 0 52.966-23.764 52.966-52.966s-23.764-52.966-52.966-52.966c-9.746 0-17.655-7.892-17.655-17.655s7.91-17.655 17.655-17.655c48.675 0 88.276 39.601 88.276 88.276s-39.601 88.276-88.276 88.276c-42.62 0-78.283-30.385-86.493-70.621h-266.611v-935.724h1024v935.724h-266.611zM988.69-19.862h-953.379v670.897h953.379v-670.897zM459.034 915.862c29.202 0 52.966-23.764 52.966-52.966s-23.764-52.966-52.966-52.966c-9.746 0-17.655-7.892-17.655-17.655s7.91-17.655 17.655-17.655c48.675 0 88.276 39.601 88.276 88.276s-39.601 88.276-88.276 88.276c-9.746 0-17.655-7.892-17.655-17.655s7.91-17.655 17.655-17.655zM564.966 915.862c29.202 0 52.966-23.764 52.966-52.966s-23.764-52.966-52.966-52.966c-9.746 0-17.655-7.892-17.655-17.655s7.91-17.655 17.655-17.655c48.675 0 88.276 39.601 88.276 88.276s-39.601 88.276-88.276 88.276c-9.746 0-17.655-7.892-17.655-17.655s7.91-17.655 17.655-17.655zM158.897 509.793h388.414c9.746 0 17.655 7.892 17.655 17.655s-7.91 17.655-17.655 17.655h-388.414c-9.746 0-17.655-7.892-17.655-17.655s7.91-17.655 17.655-17.655zM865.103 262.621h-264.828c-9.746 0-17.655-7.892-17.655-17.655s7.91-17.655 17.655-17.655h264.828c9.746 0 17.655 7.892 17.655 17.655s-7.91 17.655-17.655 17.655zM158.897 368.552h176.552c9.746 0 17.655 7.892 17.655 17.655s-7.91 17.655-17.655 17.655h-176.552c-9.746 0-17.655-7.892-17.655-17.655s7.91-17.655 17.655-17.655zM865.103 121.379h-176.552c-9.746 0-17.655-7.892-17.655-17.655s7.91-17.655 17.655-17.655h176.552c9.746 0 17.655 7.892 17.655 17.655s-7.91 17.655-17.655 17.655zM494.345 386.207c0-9.763 7.91-17.655 17.655-17.655h264.828c9.746 0 17.655 7.892 17.655 17.655s-7.91 17.655-17.655 17.655h-264.828c-9.746 0-17.655-7.892-17.655-17.655zM436.259 373.672c3.178 3.354 5.12 7.945 5.12 12.535 0 4.608-1.942 9.198-5.12 12.535-6.532 6.532-18.538 6.532-25.070 0-3.178-3.337-5.12-7.927-5.12-12.535 0-4.59 1.942-9.181 5.12-12.535 3.354-3.337 7.945-5.12 12.535-5.12s9.181 1.783 12.535 5.12zM229.517 244.966c0-9.763 7.91-17.655 17.655-17.655h264.828c9.746 0 17.655 7.892 17.655 17.655s-7.91 17.655-17.655 17.655h-264.828c-9.746 0-17.655-7.892-17.655-17.655zM158.897 227.31c4.59 0 9.181 1.942 12.535 5.12 3.178 3.354 5.12 7.945 5.12 12.535 0 4.608-1.942 9.198-5.12 12.359-6.532 6.709-18.538 6.709-25.070 0.177-3.178-3.337-5.12-7.927-5.12-12.535 0-4.59 1.942-9.181 5.12-12.535 3.354-3.178 7.768-5.12 12.535-5.12zM865.103 368.552c4.59 0 9.181 1.783 12.535 5.12 3.354 3.354 5.12 7.945 5.12 12.535 0 4.608-1.766 9.198-5.12 12.535-6.709 6.532-18.538 6.532-25.070 0-3.178-3.337-5.12-7.927-5.12-12.535 0-4.59 1.942-9.181 5.12-12.535 3.354-3.337 7.945-5.12 12.535-5.12zM600.276 121.379h-441.379c-9.746 0-17.655-7.892-17.655-17.655s7.91-17.655 17.655-17.655h441.379c9.746 0 17.655 7.892 17.655 17.655s-7.91 17.655-17.655 17.655z" />
<glyph unicode="&#xe902;" glyph-name="communication" d="M825.725 413.072v376.052c0 52.078-42.458 94.536-94.536 94.536h-636.654c-52.078 0-94.536-42.458-94.536-94.536v-376.052c0-52.078 42.458-94.536 94.536-94.536h26.98v-113.359c0-20.915 16.941-37.856 38.065-37.856v0c10.876 0 21.333 4.81 28.654 13.176l119.425 138.248h423.739c51.869-0.209 94.327 42.248 94.327 94.327zM295.739 369.778c-7.529 0-14.431-3.137-19.451-8.784l-103.739-119.843v103.111c0 14.222-11.503 25.725-25.725 25.725h-52.288c-23.843 0-43.294 19.451-43.294 43.294v375.843c0 23.843 19.451 43.294 43.294 43.294h636.654c23.843 0 43.294-19.451 43.294-43.294v-376.052c0-23.843-19.451-43.294-43.294-43.294h-435.451zM835.974 25.516c7.32-8.575 17.778-13.176 28.444-13.176 4.392 0 8.993 0.837 13.386 2.51 15.059 5.647 24.68 19.451 24.68 35.556v113.359h26.98c52.078 0 94.536 42.458 94.536 94.536v376.052c0 52.078-42.458 94.536-94.536 94.536-14.222 0-25.725-11.503-25.725-25.516 0-14.222 11.503-25.725 25.725-25.725 23.843 0 43.294-19.451 43.294-43.294v-376.052c0-23.843-19.451-43.294-43.294-43.294h-52.497c-14.222 0-25.725-11.503-25.725-25.725v-103.111l-103.739 119.843c-4.81 5.647-11.922 8.784-19.451 8.784h-384.837c-14.222 0-25.725-11.503-25.725-25.725s11.503-25.725 25.725-25.725h373.124l119.634-137.83zM443.399 592.105c0-16.865-13.671-30.536-30.536-30.536s-30.536 13.671-30.536 30.536c0 16.865 13.671 30.536 30.536 30.536s30.536-13.671 30.536-30.536zM545.673 592.105c0-16.865-13.671-30.536-30.536-30.536s-30.536 13.671-30.536 30.536c0 16.865 13.671 30.536 30.536 30.536s30.536-13.671 30.536-30.536zM341.124 592.105c0-16.865-13.671-30.536-30.536-30.536s-30.536 13.671-30.536 30.536c0 16.865 13.671 30.536 30.536 30.536s30.536-13.671 30.536-30.536z" />
<glyph unicode="&#xe903;" glyph-name="computer" d="M880.86 906.047h-737.72c-69.148 0-143.14-37.657-143.14-143.14v-494.603c0-105.483 73.992-143.14 143.14-143.14h273.067v-91.169h-45.364c-12.161 0-22.022-9.86-22.022-22.022s9.86-22.022 22.022-22.022h290.684c12.161 0 22.022 9.86 22.022 22.022s-9.86 22.022-22.022 22.022h-53.732v91.169h273.067c105.483 0 143.14 73.992 143.14 143.14v494.603c0 105.483-73.992 143.14-143.14 143.14zM563.751 33.996h-103.501v91.169h103.501v-91.169zM979.957 268.305c0-29.729-9.689-99.097-99.097-99.097h-737.72c-29.729 0-99.097 9.689-99.097 99.097v31.491h935.914v-31.491zM979.957 343.618h-935.914v418.409c0 89.407 69.368 99.097 99.097 99.097h737.72c29.729 0 99.097-9.689 99.097-99.097v-418.409zM868.996 802.109c-9.722 7.306-23.527 5.346-30.833-4.377-0.008-0.011-0.017-0.019-0.022-0.030h1.101l-164.28-220.215-77.075 100.198c-4.013 5.222-10.155 8.374-16.736 8.588-6.554 0.187-12.852-2.56-17.177-7.487l-125.525-142.699-92.050 157.234c-3.925 6.62-11.022 10.711-18.718 10.791-7.73 0.044-14.92-3.967-18.938-10.57l-151.948-245.54c-7.82-9.315-6.606-23.205 2.709-31.026s23.205-6.606 31.026 2.709c1.577 1.877 2.827 4.005 3.702 6.295l132.129 215.37 88.086-151.728c6.141-10.499 19.629-14.028 30.128-7.886 1.993 1.167 3.79 2.64 5.326 4.363l128.165 143.36 78.617-102.18c4.498-5.092 10.837-8.181 17.617-8.588 6.854 0.069 13.284 3.325 17.397 8.809l181.677 243.778c7.306 9.722 5.346 23.527-4.377 30.833z" />
<glyph unicode="&#xe904;" glyph-name="down-chevron" d="M511.999 148.392l-458.77 457.277-53.229-53.402 511.999-510.332 512.001 510.332-53.229 53.402zM1024 800.664l-53.229 53.402-458.773-457.277-458.77 457.277-53.229-53.402 511.999-510.332z" />
<glyph unicode="&#xe905;" glyph-name="drop" d="M819.756 526.613c-5.639 8.070-17.779 23.329-18.638 24.36-205.375 225.931-256.394 357.698-267.133 392.686-2.999 9.769-11.839 16.34-22.020 16.34-10.179 0-19.019-6.571-22.018-16.33-10.741-35.010-61.758-166.795-267.973-393.728 0 0-12.141-15.261-17.779-23.32-51.279-73.239-74.657-163.105-65.818-253.062 17.18-174.935 156.355-315.891 330.931-335.17 14.52-1.599 28.938-2.39 43.259-2.39 92.618 0 180.054 33.24 249.832 95.738 79.479 71.178 125.056 173.155 125.056 279.773 0 77.457-23.418 151.834-67.698 215.103zM735.080 62.246c-71.797-64.308-164.554-93.828-261.292-83.137-155.415 17.16-279.353 142.686-294.653 298.451-7.879 80.238 12.939 160.336 58.619 225.574 4.979 7.109 15.479 20.329 15.439 20.329 160.234 176.296 229.652 298.852 258.772 363.85 29.080-64.959 98.358-187.326 257.973-362.87 0.060-0.079 11.119-13.961 16.259-21.309 39.44-56.358 60.297-122.617 60.297-191.625 0.002-94.987-40.617-185.845-111.414-249.262zM283.933 287.88l-40.758-4.021c12.159-123.636 114.357-227.163 237.693-240.803l4.52 40.719c-104.538 11.55-191.136 99.296-201.455 204.104z" />
<glyph unicode="&#xe906;" d="M761.4 914.948c60.069 60.069 157.479 60.069 217.548 0s60.069-157.479 0-217.548l-217.548 217.548z" />
<glyph unicode="&#xe907;" d="M815.777 615.834l-498.281-498.3-10.191-91.776 549.274 549.293z" />
<glyph unicode="&#xe908;" d="M198.532 134.532l91.776 10.191 498.281 498.3-81.566 81.566-498.3-498.281z" />
<glyph unicode="&#xe909;" d="M679.834 751.777l-40.802 40.802-549.274-549.274 91.776 10.191z" />
<glyph unicode="&#xe90a;" d="M938.146 656.617v0l40.802 40.783-217.548 217.548-40.783-40.802z" />
<glyph unicode="&#xe90b;" d="M693.409 846.957v0l-27.189-27.189 217.548-217.529 27.189 27.189z" />
<glyph unicode="&#xe90c;" d="M277.348 104.574l-98.487-10.941c-0.692-0.077-1.404-0.115-2.096-0.115 0 0-0.019 0-0.019 0v0 0c-0.019 0-0.019 0-0.019 0-0.692 0-1.404 0.038-2.096 0.115-0.75 0.077-1.365 0.5-2.077 0.673-1.384 0.327-2.711 0.673-3.98 1.288-0.961 0.461-1.788 1.019-2.653 1.615-1.096 0.769-2.096 1.596-3.019 2.577-0.731 0.769-1.327 1.557-1.923 2.442-0.731 1.096-1.327 2.23-1.827 3.48-0.423 1.038-0.731 2.057-0.961 3.173-0.135 0.615-0.461 1.134-0.538 1.769-0.077 0.731 0.192 1.404 0.192 2.115 0 0.731-0.269 1.384-0.192 2.115l10.941 98.487-98.487-10.941c-0.711-0.077-1.442-0.115-2.134-0.115-1.519 0-2.923 0.461-4.365 0.808l-55.108-231.431 40.495 40.495c7.518 7.518 19.67 7.518 27.189 0s7.518-19.67 0-27.189l-40.495-40.495 231.316 55.070c-0.5 2.096-0.827 4.269-0.577 6.518l10.922 98.487z" />
<glyph unicode="&#xe90d;" d="M76.182 12.182c-7.518 7.518-19.67 7.518-27.189 0l-40.495-40.495-8.499-35.688 35.688 8.499 40.495 40.495c7.499 7.518 7.499 19.67 0 27.189z" />
<glyph unicode="&#xe90e;" d="M938.146 656.617l-217.548 217.529-27.189-27.189 217.548-217.529 27.189 27.189z" />
<glyph unicode="&#xe90f;" d="M788.589 643.022l-498.281-498.3-91.776-10.191 10.191 91.776 498.3 498.281-27.189 27.189-498.3-498.281-91.776-10.191-21.786-21.786-4.384-18.401c1.442-0.346 2.827-0.808 4.365-0.808 0.692 0 1.423 0.038 2.134 0.115l98.487 10.941-10.941-98.487c-0.077-0.731 0.192-1.404 0.192-2.115 0-0.731-0.269-1.384-0.192-2.115 0.077-0.635 0.404-1.154 0.538-1.769 0.231-1.096 0.558-2.154 0.961-3.173 0.5-1.231 1.096-2.384 1.827-3.48 0.577-0.865 1.211-1.692 1.923-2.442 0.904-0.961 1.923-1.807 3.019-2.577 0.846-0.596 1.711-1.173 2.653-1.615 1.25-0.596 2.596-0.961 3.98-1.288 0.731-0.173 1.327-0.577 2.077-0.673 0.692-0.077 1.384-0.115 2.096-0.115h0.058c0 0 0.019 0 0.019 0v0c0.673 0 1.384 0.038 2.096 0.115l98.487 10.941-10.941-98.487c-0.25-2.269 0.077-4.422 0.577-6.518l18.517 4.403 21.786 21.766 10.191 91.776 498.281 498.3-27.189 27.208z" />
<glyph unicode="&#xe910;" d="M883.768 602.239l-217.548 217.529-27.189-27.189 217.548-217.529 27.189 27.189z" />
<glyph unicode="&#xe911;" glyph-name="email" d="M1016.409 529.451l0.002 0.002-130.757 86.686v289.747c0 9.366-7.593 16.96-16.96 16.96h-713.413c-9.366 0-16.96-7.593-16.96-16.96v-289.768l-130.732-86.671c-4.572-3.037-7.591-8.229-7.591-14.131v-525.206c0-9.366 7.593-16.96 16.96-16.96h990.081c9.366 0 16.96 7.593 16.96 16.96v525.206c0 5.902-3.019 11.094-7.591 14.133zM138.323 470.14l-53.197 28.219h53.197v-28.219zM33.919 487.125l390.015-206.885-390.015-258.526v465.411zM511.993 297.921l438.773-290.849h-877.543l438.771 290.849zM600.059 280.238l390.020 206.887v-465.42l-390.020 258.533zM885.655 498.359h53.222l-53.222-28.23v28.23zM950.766 532.278h-65.111v43.168l65.111-43.168zM851.735 888.928v-436.792l-283.852-150.57-46.521 30.837c-5.678 3.765-13.061 3.765-18.739 0l-46.515-30.833-283.866 150.577v436.781h679.493zM138.323 532.278h-65.084l65.084 43.145v-43.145zM511.989 476.829h135.121c9.366 0 16.96 7.593 16.96 16.96s-7.593 16.96-16.96 16.96h-135.121c-65.154 0-118.161 53.007-118.161 118.161v5.004c0 65.154 53.007 118.161 118.161 118.161s118.161-53.007 118.161-118.161v-12.512c0-14.104-11.474-25.58-25.58-25.58s-25.58 11.474-25.58 25.58v23.771c0 40.396-32.863 73.261-73.259 73.261s-73.259-32.863-73.259-73.261c0-40.396 32.863-73.259 73.259-73.259 18.472 0 35.357 6.886 48.256 18.208 10.501-16.921 29.243-28.216 50.583-28.216 32.807 0 59.499 26.69 59.499 59.499v12.512c0 83.857-68.223 152.080-152.080 152.080s-152.080-68.223-152.080-152.080v-5.004c0-83.86 68.223-152.083 152.080-152.083zM505.732 605.833c-21.693 0-39.34 17.647-39.34 39.34s17.649 39.342 39.34 39.342 39.34-17.649 39.34-39.342-17.647-39.34-39.34-39.34z" />
<glyph unicode="&#xe913;" glyph-name="facebook-social-badge" d="M1003.982 515.8l-83.27 110.793-24.786 136.349c-7.697 42.316-41.463 74.812-84.070 80.862l-137.21 19.47-113.933 78.89c-28.623 19.821-64.751 23.322-96.656 9.372-7.053-3.081-13.756-6.992-19.946-11.646l-110.785-83.261-136.359-24.786c-7.612-1.381-15.042-3.657-22.104-6.738-31.419-13.732-53.928-43.365-58.747-77.317l-19.46-137.207-78.897-113.955c-24.486-35.359-23.575-82.223 2.263-116.609l83.27-110.78 24.775-136.355c7.697-42.322 41.463-74.812 84.065-80.86l137.221-19.47 113.922-78.89c28.2-19.516 65.235-23.127 96.658-9.382 7.069 3.087 13.793 7.010 19.957 11.648l110.797 83.272 136.364 24.786c7.603 1.381 15.033 3.657 22.1 6.735 31.414 13.736 53.922 43.358 58.743 77.324l19.459 137.214 78.899 113.94c24.48 35.369 23.555 82.231-2.268 116.6zM511.997 83.64c-200.913 0-364.357 163.446-364.357 364.351 0 200.913 163.446 364.357 364.357 364.357s364.357-163.444 364.357-364.357c0-200.908-163.444-364.351-364.357-364.351zM511.997 777.995c-181.957 0-330.004-148.032-330.004-330.004 0-181.953 148.038-330.004 330.004-330.004s330 148.051 330 330.004c0 181.97-148.043 330.004-330 330.004zM614.439 447.824h-67.021c0-107.079 0-238.938 0-238.938h-99.325c0 0 0 130.555 0 238.938h-47.221v84.442h47.221v54.623c0 39.112 18.57 100.239 100.239 100.239l73.553-0.291v-81.942c0 0-44.723 0-53.418 0-8.688 0-21.041-4.343-21.041-22.994v-49.627h75.697l-8.684-84.451z" />
<glyph unicode="&#xe914;" glyph-name="forms" d="M927.99 706.272l-247.608 247.606c-3.922 3.92-9.236 6.122-14.778 6.122h-474.153c-56.004 0-101.564-45.564-101.564-101.568v-820.866c0-56.002 45.562-101.566 101.566-101.566h641.093c56.004 0 101.566 45.562 101.566 101.566v653.929c-0.002 5.542-2.204 10.858-6.122 14.778zM686.509 888.642l176.254-176.252h-116.484c-15.968 0-30.98 6.218-42.268 17.506-11.29 11.286-17.504 26.296-17.502 42.262v116.484zM892.314 37.568c0-32.958-26.812-59.77-59.768-59.77h-641.095c-32.958 0-59.77 26.812-59.77 59.77v820.864c0.002 32.958 26.814 59.772 59.77 59.772h453.261v-146.042c-0.004-27.13 10.56-52.636 29.742-71.818 19.184-19.184 44.69-29.748 71.822-29.748h146.036v-633.029zM295.577 352.511h-9.356c-11.54 0-20.898-9.356-20.898-20.898s9.358-20.898 20.898-20.898h9.356c11.54 0 20.898 9.356 20.898 20.898s-9.358 20.898-20.898 20.898zM737.777 352.511h-374.591c-11.54 0-20.898-9.356-20.898-20.898s9.358-20.898 20.898-20.898h374.591c11.54 0 20.898 9.356 20.898 20.898s-9.358 20.898-20.898 20.898zM295.577 448.001h-9.356c-11.54 0-20.898-9.356-20.898-20.898s9.358-20.898 20.898-20.898h9.356c11.54 0 20.898 9.356 20.898 20.898s-9.358 20.898-20.898 20.898zM737.777 448.001h-374.591c-11.54 0-20.898-9.356-20.898-20.898s9.358-20.898 20.898-20.898h374.591c11.54 0 20.898 9.356 20.898 20.898s-9.358 20.898-20.898 20.898zM295.577 543.491h-9.356c-11.54 0-20.898-9.356-20.898-20.898s9.358-20.898 20.898-20.898h9.356c11.54 0 20.898 9.356 20.898 20.898s-9.358 20.898-20.898 20.898zM737.777 543.491h-374.591c-11.54 0-20.898-9.356-20.898-20.898s9.358-20.898 20.898-20.898h374.591c11.54 0 20.898 9.356 20.898 20.898s-9.358 20.898-20.898 20.898z" />
<glyph unicode="&#xe915;" glyph-name="group" d="M687.492 240.829l-9.021 9.021c-0.42 0.42-0.629 0.629-1.049 1.049-49.931-29.581-107.414-45.525-166.366-45.525-74.057 0-144.547 24.546-201.821 69.861-15.525-10.699-31.469-22.658-46.994-35.455-12.378-10.070-19.511-25.385-19.511-41.329v-75.735h538.119v24.965l-79.092 79.092-14.266 14.056zM523.853 703.423h-23.916c-54.966 0-99.652-44.686-99.652-99.652v-110.561c0-17.413 8.811-32.518 22.238-41.539v-94.407c27.063-13.846 57.274-21.399 88.742-21.399 31.889 0 62.518 7.553 89.791 21.818v93.778c13.427 9.021 22.238 24.126 22.238 41.539v110.561c0.21 55.385-44.476 99.862-99.442 99.862zM1007.636 314.467c-57.483 47.203-119.372 78.463-131.96 84.756-1.469 0.629-2.308 2.098-2.308 3.776v89.372c11.329 7.553 18.672 20.35 18.672 34.826v92.729c0 46.154-37.343 83.498-83.498 83.498h-19.301c29.371-47.623 46.364-102.169 48.462-159.023 2.518-63.358-13.427-125.456-45.315-179.163 0.42-0.42 0.629-0.629 1.049-1.049l148.324-148.324h82.239v63.567c0 13.637-6.084 26.434-16.364 35.035zM952.251 146.632l-188.394 188.394-11.119-11.119-23.916 23.916c94.826 111.82 89.582 279.654-16.154 385.39-55.595 55.595-128.603 83.498-201.401 83.498s-145.806-27.902-201.401-83.498c-111.19-111.19-111.19-291.612 0-402.803 55.595-55.595 128.603-83.498 201.401-83.498 65.455 0 130.911 22.448 183.989 67.344l23.916-23.916-11.119-11.119 188.394-188.394c7.762-7.762 17.832-11.539 27.902-11.539s20.14 3.776 27.902 11.539c15.315 15.315 15.315 40.28 0 55.805 0-0.21 0 0 0 0zM679.1 363.768c-46.364-46.364-107.204-69.442-167.834-69.442-60.84 0-121.47 23.077-167.834 69.442-92.729 92.729-92.729 242.94 0 335.669 46.364 46.364 107.204 69.442 167.834 69.442 60.84 0 121.47-23.077 167.834-69.442 92.729-92.519 92.729-242.94 0-335.669zM233.709 703.423h-18.252c-46.154 0-83.498-37.343-83.498-83.498v-92.729c0-14.476 7.343-27.273 18.672-34.826v-89.372c0-1.678-0.839-2.937-2.308-3.776-12.588-6.084-74.477-37.553-131.96-84.756-10.28-8.602-16.364-21.399-16.364-34.826v-63.567h203.919c4.196 21.609 15.525 41.119 32.728 55.176 13.846 11.329 27.902 22.028 41.749 31.889-107.204 109.092-122.1 275.249-44.686 400.285z" />
<glyph unicode="&#xe916;" glyph-name="home" d="M924.778 452.13c-13.691 0-24.795-11.104-24.795-24.795v-441.749h-266.070v277.302c0 13.691-11.104 24.795-24.795 24.795h-194.23c-13.691 0-24.795-11.104-24.795-24.795v-219.88c0-13.691 11.104-24.795 24.795-24.795s24.795 11.104 24.795 24.795v195.085h144.639v-252.507h-460.304v606.91l387.98 310.929 397.27-318.372c10.687-8.567 26.291-6.839 34.854 3.843 8.563 10.687 6.843 26.287-3.843 34.854l-412.775 330.802c-9.059 7.265-21.952 7.265-31.011 0l-412.775-330.802c-5.872-4.707-9.29-11.819-9.29-19.349v-643.607c0-13.691 11.1-24.795 24.795-24.795h825.555c13.695 0 24.795 11.104 24.795 24.795v466.54c0 13.695-11.1 24.795-24.795 24.795z" />
<glyph unicode="&#xe917;" d="M512 786.113c-170.738 0-309.132-138.414-309.132-309.132 0-136.965 89.165-252.928 212.528-293.521v-189.498h38.642v-57.962h115.925v57.962h38.642v189.498c123.363 40.593 212.528 156.556 212.528 293.521 0 170.718-138.395 309.132-309.132 309.132z" />
<glyph unicode="&#xe918;" d="M512 960c-10.684 0-19.321-8.636-19.321-19.321v-77.283c0-10.684 8.636-19.321 19.321-19.321s19.321 8.636 19.321 19.321v77.283c0 10.684-8.636 19.321-19.321 19.321z" />
<glyph unicode="&#xe919;" d="M975.698 496.302h-77.283c-10.684 0-19.321-8.636-19.321-19.321s8.636-19.321 19.321-19.321h77.283c10.684 0 19.321 8.636 19.321 19.321s-8.636 19.321-19.321 19.321z" />
<glyph unicode="&#xe91a;" d="M125.585 496.302h-77.283c-10.684 0-19.321-8.636-19.321-19.321s8.636-19.321 19.321-19.321h77.283c10.684 0 19.321 8.636 19.321 19.321s-8.636 19.321-19.321 19.321z" />
<glyph unicode="&#xe91b;" d="M826.233 818.533l-54.639-54.639c-7.554-7.554-7.554-19.765 0-27.32 3.768-3.768 8.714-5.661 13.66-5.661s9.892 1.893 13.66 5.661l54.639 54.639c7.554 7.554 7.554 19.765 0 27.32s-19.784 7.535-27.32 0z" />
<glyph unicode="&#xe91c;" d="M225.087 217.387l-54.639-54.639c-7.554-7.554-7.554-19.765 0-27.32 3.768-3.768 8.714-5.661 13.66-5.661s9.892 1.893 13.66 5.661l54.639 54.639c7.554 7.554 7.554 19.765 0 27.32s-19.765 7.554-27.32 0z" />
<glyph unicode="&#xe91d;" d="M798.913 217.387c-7.554 7.554-19.765 7.554-27.32 0s-7.554-19.765 0-27.32l54.639-54.639c3.768-3.768 8.714-5.661 13.66-5.661s9.892 1.893 13.66 5.661c7.554 7.554 7.554 19.765 0 27.32l-54.639 54.639z" />
<glyph unicode="&#xe91e;" d="M197.767 818.533c-7.554 7.554-19.765 7.554-27.32 0s-7.554-19.765 0-27.32l54.639-54.639c3.768-3.768 8.714-5.661 13.66-5.661s9.892 1.893 13.66 5.661c7.554 7.554 7.554 19.765 0 27.32l-54.639 54.639z" />
<glyph unicode="&#xe91f;" d="M299.472 457.66c-10.684 0-19.321 8.636-19.321 19.321 0 127.845 104.004 231.849 231.849 231.849 10.684 0 19.321-8.636 19.321-19.321s-8.636-19.321-19.321-19.321c-106.535 0-193.208-86.673-193.208-193.208 0-10.684-8.636-19.321-19.321-19.321z" />
<glyph unicode="&#xe920;" d="M415.396 129.208v-135.245h38.642v-57.962h115.925v57.962h38.642v135.245z" />
<glyph unicode="&#xe921;" glyph-name="left-chevron" d="M669.668 906.774l-53.402 53.226-510.334-512 510.334-512 53.402 53.226-457.278 458.774zM918.065 906.774l-53.402 53.226-510.334-512 510.334-512 53.402 53.226-457.278 458.774z" />
<glyph unicode="&#xe922;" glyph-name="linked-in-social-badge" d="M1003.971 515.802l-83.251 110.793-24.786 136.349c-7.687 42.316-41.472 74.812-84.059 80.862l-137.223 19.47-113.922 78.888c-28.641 19.823-64.781 23.323-96.662 9.372-7.058-3.081-13.756-6.992-19.946-11.646l-110.798-83.261-136.355-24.786c-7.601-1.381-15.031-3.657-22.109-6.738-31.415-13.732-53.922-43.365-58.743-77.317l-19.451-137.207-78.905-113.953c-24.484-35.359-23.585-82.223 2.263-116.609l83.266-110.78 24.766-136.355c7.697-42.322 41.472-74.812 84.070-80.86l137.221-19.47 113.922-78.89c28.194-19.516 65.228-23.127 96.662-9.382 7.069 3.087 13.793 7.010 19.966 11.648l110.771 83.272 136.382 24.786c7.583 1.381 15.033 3.657 22.080 6.735 31.425 13.736 53.933 43.358 58.751 77.324l19.451 137.214 78.908 113.94c24.49 35.369 23.574 82.229-2.268 116.6zM512.001 83.64c-200.917 0-364.362 163.446-364.362 364.351 0 200.913 163.455 364.357 364.362 364.357 200.897 0 364.353-163.444 364.353-364.357-0.002-200.906-163.446-364.351-364.353-364.351zM512.001 777.995c-181.953 0-329.994-148.032-329.994-330.004 0-181.953 148.041-330.004 329.994-330.004 181.97 0 329.994 148.051 329.994 330.004 0 181.971-148.025 330.004-329.994 330.004zM425.834 303.96h-67.658v203.54h67.658v-203.54zM392.020 535.299h-0.465c-22.68 0-37.359 15.636-37.359 35.174 0 19.955 15.136 35.153 38.262 35.153 23.147 0 37.398-15.207 37.834-35.153 0.002-19.538-14.687-35.174-38.271-35.174zM669.796 303.96h-67.647v108.902c0 27.367-9.803 46.018-34.283 46.018-18.688 0-29.813-12.582-34.71-24.747-1.801-4.341-2.239-10.41-2.239-16.488v-113.675h-67.667c0 0 0.896 184.453 0 203.542h67.667v-28.814c8.993 13.865 25.071 33.614 60.98 33.614 44.522 0 77.878-29.094 77.878-91.638v-116.712h0.020zM530.926 477.987v0.699c-0.132-0.224-0.294-0.476-0.436-0.699h0.436z" />
<glyph unicode="&#xe923;" d="M1024 448.009c0-282.77-229.23-512-512-512s-512 229.23-512 512c0 282.77 229.23 512 512 512s512-229.23 512-512z" />
<glyph unicode="&#xe924;" d="M817.915 406.81v-211.087h-122.382v196.94c0 49.449-17.67 83.219-61.981 83.219-33.815 0-53.903-22.735-62.775-44.749-3.222-7.867-4.052-18.792-4.052-29.827v-205.574h-122.392c0 0 1.643 333.551 0 368.078h122.401v-52.16c-0.246-0.411-0.593-0.812-0.812-1.205h0.812v1.205c16.264 25.026 45.269 60.803 110.298 60.803 80.517 0 140.883-52.607 140.883-165.644v0zM316.301 741.238c-41.865 0-69.255-27.481-69.255-63.587 0-35.339 26.596-63.614 67.648-63.614h0.794c42.686 0 69.227 28.275 69.227 63.614-0.812 36.106-26.541 63.587-68.415 63.587v0zM254.321 195.724h122.346v368.087h-122.346v-368.087z" />
<glyph unicode="&#xe925;" glyph-name="lock" d="M614.4 721.067c0 56.474-45.926 102.4-102.4 102.4s-102.4-45.926-102.4-102.4v-17.067c0-9.438 7.646-17.067 17.067-17.067s17.067 7.629 17.067 17.067v17.067c0 37.649 30.618 68.267 68.267 68.267s68.267-30.618 68.267-68.267v-119.467h-256v-324.267h375.467v324.267h-85.333v119.467zM665.6 311.467h-307.2v256h307.2v-256zM512 533.333c-37.649 0-68.267-30.618-68.267-68.267 0-31.727 21.845-58.214 51.2-65.843v-36.557c0-9.438 7.646-17.067 17.067-17.067s17.067 7.629 17.067 17.067v36.557c29.355 7.629 51.2 34.116 51.2 65.843 0 37.649-30.618 68.267-68.267 68.267zM512 430.933c-18.825 0-34.133 15.309-34.133 34.133s15.309 34.133 34.133 34.133 34.133-15.309 34.133-34.133-15.309-34.133-34.133-34.133zM512 960c-254.089 0-460.8-206.711-460.8-460.8 0-240.794 185.702-438.938 421.393-459.008l-75.059-75.059c-6.673-6.673-6.673-17.459 0-24.132 3.328-3.328 7.697-5.001 12.066-5.001s8.738 1.673 12.066 5.001l102.383 102.383c1.587 1.57 2.833 3.465 3.703 5.564 1.724 4.164 1.724 8.875 0 13.039-0.87 2.099-2.116 3.977-3.703 5.564l-102.383 102.383c-6.673 6.673-17.459 6.673-24.132 0s-6.673-17.459 0-24.132l71.066-71.066c-214.955 21.811-383.266 203.844-383.266 424.465 0 235.264 191.403 426.667 426.667 426.667s426.667-191.403 426.667-426.667c0-113.203-43.861-219.836-123.529-300.254-6.639-6.707-6.588-17.51 0.119-24.149 6.69-6.605 17.493-6.571 24.132 0.119 86.033 86.869 133.41 202.035 133.41 324.284 0 254.089-206.711 460.8-460.8 460.8z" />
<glyph unicode="&#xe926;" glyph-name="man" d="M904.533 141.312h-238.933v72.926c92.023 49.715 157.406 142.592 168.841 251.341h18.893c47.053 0 85.333 38.281 85.333 85.333s-38.281 85.333-85.333 85.333h-17.067c0 159.983-130.15 290.133-290.133 290.133h-273.067c-14.217 0-26.692 8.67-31.795 22.101-2.816 7.424-10.325 11.861-18.21 10.871-31.3-4.164-60.228-21.026-79.377-46.251-19.354-25.498-27.511-57.207-23.006-89.31 6.298-44.698 38.622-80.879 80.981-95.351-9.062-30.259-13.926-61.167-13.926-92.194h-17.067c-47.053 0-85.333-38.281-85.333-85.333s38.281-85.333 85.333-85.333h18.893c11.435-108.749 76.817-201.626 168.841-251.341v-72.926h-238.933c-65.877 0-119.467-53.589-119.467-119.467v-85.333h34.133v85.333c0 47.053 38.281 85.333 85.333 85.333h251.102l132.386-82.739c2.765-1.724 5.905-2.594 9.045-2.594s6.281 0.87 9.045 2.594l132.386 82.739h251.102c47.053 0 85.333-38.281 85.333-85.333v-85.333h34.133v85.333c0 65.877-53.589 119.467-119.467 119.467zM836.267 602.112h17.067c28.228 0 51.2-22.972 51.2-51.2s-22.972-51.2-51.2-51.2h-17.067v102.4zM187.733 499.712h-17.067c-28.228 0-51.2 22.972-51.2 51.2s22.972 51.2 51.2 51.2h17.067v-102.4zM154.487 828.553c-3.243 23.023 2.577 45.722 16.384 63.915 11.503 15.138 27.273 25.805 45.227 30.737 12.442-18.961 33.86-30.959 56.969-30.959h273.067c140.595 0 255.061-113.903 255.983-254.276-0.017 0-0.034 0-0.051 0-0.239 0.051-0.461 0.154-0.717 0.205-4.983 1.058-9.796 2.594-14.404 4.489-1.587 0.649-3.038 1.536-4.591 2.27-3.157 1.519-6.281 3.106-9.199 5.001-1.655 1.075-3.191 2.304-4.779 3.482-2.56 1.911-5.069 3.925-7.407 6.11-1.502 1.399-2.918 2.884-4.301 4.403-2.133 2.304-4.113 4.727-5.99 7.253-1.229 1.655-2.423 3.328-3.533 5.086-1.707 2.714-3.191 5.564-4.608 8.465-0.87 1.792-1.792 3.567-2.543 5.427-1.297 3.277-2.27 6.707-3.157 10.172-0.444 1.69-1.024 3.311-1.365 5.035-0.99 5.257-1.604 10.667-1.604 16.213v17.067c0 9.421-7.646 17.067-17.067 17.067h-474.266c-5.342 0-10.803 0.495-16.23 1.468-0.068 0.017-0.119-0.017-0.188 0-36.966 6.605-66.526 35.089-71.629 71.373zM631.484 133.7l-119.467-74.667-119.467 74.667v64.785c0.905-0.358 1.826-0.597 2.731-0.939 8.294-3.243 16.708-6.229 25.327-8.772 2.031-0.597 4.113-1.024 6.161-1.587 7.834-2.133 15.701-4.164 23.757-5.717 2.543-0.495 5.137-0.751 7.68-1.178 7.646-1.28 15.275-2.543 23.091-3.294 2.389-0.222 4.779-0.188 7.168-0.358 7.799-0.563 15.582-1.195 23.535-1.195s15.735 0.631 23.552 1.195c2.389 0.171 4.779 0.137 7.168 0.358 7.817 0.734 15.445 1.997 23.091 3.294 2.56 0.427 5.137 0.683 7.68 1.178 8.055 1.553 15.923 3.584 23.757 5.717 2.048 0.563 4.113 0.99 6.161 1.587 8.619 2.543 17.033 5.53 25.344 8.755 0.905 0.358 1.826 0.58 2.731 0.939v-64.768zM639.317 239.394c-9.097-4.454-18.364-8.397-27.75-11.861-1.075-0.393-2.133-0.802-3.226-1.178-9.523-3.379-19.183-6.212-28.928-8.567-0.819-0.188-1.604-0.444-2.423-0.631-42.786-9.899-87.194-9.899-129.98 0-0.819 0.188-1.604 0.427-2.423 0.631-9.745 2.338-19.405 5.188-28.928 8.567-1.075 0.375-2.15 0.785-3.226 1.178-9.387 3.447-18.654 7.39-27.75 11.861-96.239 47.275-162.816 146.039-162.816 260.318v136.533c0 28.774 4.437 57.481 13.175 85.572 2.509-0.171 5.001-0.239 7.492-0.239h457.199c0-3.942 0.222-7.851 0.597-11.691 0.119-1.28 0.358-2.526 0.529-3.789 0.324-2.543 0.666-5.103 1.161-7.595 0.29-1.485 0.683-2.918 1.024-4.386 0.529-2.236 1.058-4.454 1.707-6.622 0.444-1.519 0.973-2.987 1.485-4.489 0.7-2.065 1.434-4.096 2.236-6.11 0.597-1.502 1.263-2.953 1.929-4.42 0.87-1.929 1.775-3.823 2.748-5.683 0.751-1.451 1.519-2.867 2.338-4.267 1.041-1.809 2.116-3.601 3.243-5.342 0.87-1.348 1.741-2.697 2.662-4.011 1.212-1.724 2.475-3.396 3.772-5.052 0.973-1.246 1.929-2.492 2.953-3.686 1.399-1.638 2.867-3.209 4.335-4.779 1.041-1.109 2.065-2.236 3.14-3.294 1.621-1.604 3.345-3.089 5.052-4.608 1.041-0.922 2.048-1.877 3.123-2.748 2.133-1.741 4.369-3.362 6.639-4.966 0.751-0.529 1.434-1.109 2.202-1.621 3.038-2.048 6.161-3.942 9.387-5.7 0.973-0.529 2.014-0.973 3.004-1.485 2.304-1.178 4.608-2.338 6.997-3.379 1.314-0.563 2.679-1.041 4.028-1.553 2.133-0.836 4.267-1.655 6.451-2.372 1.502-0.478 3.021-0.87 4.54-1.297 2.116-0.597 4.215-1.161 6.383-1.638 1.604-0.358 3.226-0.631 4.864-0.922 1.297-0.222 2.56-0.546 3.874-0.734v-103.629c0-114.278-66.577-213.043-162.816-260.318zM426.667 550.912c0-18.851-15.282-34.133-34.133-34.133s-34.133 15.282-34.133 34.133c0 18.851 15.282 34.133 34.133 34.133s34.133-15.282 34.133-34.133zM665.6 550.912c0-18.851-15.282-34.133-34.133-34.133s-34.133 15.282-34.133 34.133c0 18.851 15.282 34.133 34.133 34.133s34.133-15.282 34.133-34.133z" />
<glyph unicode="&#xe927;" glyph-name="network" d="M912.291 960c-61.608 0-111.709-50.102-111.709-111.709 0-19.27 4.897-37.404 13.517-53.248l-182.998-182.998c-25.228 19.642-56.804 31.446-91.173 31.446s-65.946-11.804-91.192-31.427l-142.783 142.783c6.554 11.078 10.557 23.813 10.557 37.59 0 41.072-33.401 74.473-74.473 74.473s-74.473-33.401-74.473-74.473 33.401-74.473 74.473-74.473c13.777 0 26.512 4.003 37.59 10.557l142.783-142.783c-19.624-25.246-31.427-56.823-31.427-91.192s11.804-65.946 31.427-91.173l-235.781-235.799c-19.847 18.004-46.080 29.082-74.92 29.082-61.608 0-111.709-50.102-111.709-111.709s50.102-111.709 111.709-111.709 111.709 50.102 111.709 111.709c0 19.27-4.897 37.404-13.517 53.248l238.853 238.853c20.592-16.012 45.428-26.736 72.574-30.143v-189.161c-52.745-8.899-93.091-54.775-93.091-110.033 0-61.608 50.102-111.709 111.709-111.709s111.709 50.102 111.709 111.709c0 55.24-40.346 101.115-93.091 110.033v189.161c27.145 3.407 51.982 14.131 72.574 30.143l142.783-142.783c-6.572-11.096-10.575-23.831-10.575-37.609 0-41.072 33.401-74.473 74.473-74.473s74.473 33.401 74.473 74.473-33.401 74.473-74.473 74.473c-13.777 0-26.512-4.003-37.59-10.557l-142.783 142.783c19.624 25.246 31.427 56.823 31.427 91.192s-11.804 65.946-31.427 91.173l179.945 179.945c19.828-18.004 46.061-29.082 74.901-29.082 61.608 0 111.709 50.102 111.709 111.709s-50.102 111.709-111.709 111.709zM204.8 792.436c0 20.536 16.701 37.236 37.236 37.236s37.236-16.701 37.236-37.236-16.701-37.236-37.236-37.236-37.236 16.701-37.236 37.236zM111.709 10.473c-41.072 0-74.473 33.401-74.473 74.473s33.401 74.473 74.473 74.473 74.473-33.401 74.473-74.473-33.401-74.473-74.473-74.473zM614.4 47.709c0-41.072-33.401-74.473-74.473-74.473s-74.473 33.401-74.473 74.473 33.401 74.473 74.473 74.473 74.473-33.401 74.473-74.473zM539.927 382.836c-61.608 0-111.709 50.102-111.709 111.709s50.102 111.709 111.709 111.709 111.709-50.102 111.709-111.709-50.102-111.709-111.709-111.709zM875.055 196.655c0-20.536-16.701-37.236-37.236-37.236s-37.236 16.701-37.236 37.236 16.701 37.236 37.236 37.236 37.236-16.701 37.236-37.236zM912.291 773.818c-41.072 0-74.473 33.401-74.473 74.473s33.401 74.473 74.473 74.473 74.473-33.401 74.473-74.473-33.401-74.473-74.473-74.473z" />
<glyph unicode="&#xe928;" glyph-name="pencil" d="M511.986 960c-282.757 0-511.983-229.243-511.983-511.99s229.226-512.010 511.983-512.010 512.010 229.25 512.010 512.010-229.253 511.99-512.010 511.99zM755.377 591.548l-48.63-48.63-98.99 98.983-37.553-37.553 98.99-98.99-242.797-242.777-98.983 98.973-37.553-37.553 98.983-98.983-24.194-24.194-0.461 0.461c-2.683-4.417-7.045-7.639-12.227-8.789l-92.307-20.582c-1.382-0.311-2.789-0.461-4.178-0.461-5.038 0-9.933 1.983-13.561 5.622-4.656 4.639-6.595 11.339-5.161 17.76l20.572 92.279c1.161 5.178 4.39 9.551 8.8 12.227l-0.468 0.468 390.724 390.741c5.728 5.717 15.032 5.717 20.76-0.017l78.24-78.223c5.728-5.728 5.728-15.032-0.007-20.76z" />
<glyph unicode="&#xe929;" glyph-name="photo-camera" d="M942.097 695.467h-145.476l-68.267 170.667h-432.708l-68.267-170.667h-22.579v85.333h-102.4v-85.333h-20.497c-45.175 0-81.903-36.727-81.903-81.903v-501.214c0-45.483 37.001-82.483 82.483-82.483h859.034c45.483 0 82.483 37.001 82.483 82.483v501.214c0 45.175-36.727 81.903-81.903 81.903zM136.533 746.667h34.133v-51.2h-34.133v51.2zM989.867 112.35c0-26.675-21.692-48.35-48.35-48.35h-859.034c-26.658 0-48.35 21.692-48.35 48.35v501.214c0 26.334 21.436 47.77 47.77 47.77h168.585l68.267 170.667h386.492l68.267-170.667h168.585c26.334 0 47.77-21.436 47.77-47.77v-501.214zM512 712.533c-169.387 0-307.2-137.813-307.2-307.2s137.813-307.2 307.2-307.2 307.2 137.813 307.2 307.2-137.813 307.2-307.2 307.2zM512 132.267c-150.562 0-273.067 122.505-273.067 273.067s122.505 273.067 273.067 273.067 273.067-122.505 273.067-273.067-122.505-273.067-273.067-273.067zM512 610.133c-112.93 0-204.8-91.87-204.8-204.8s91.87-204.8 204.8-204.8 204.8 91.87 204.8 204.8-91.87 204.8-204.8 204.8zM512 234.667c-94.106 0-170.667 76.561-170.667 170.667s76.561 170.667 170.667 170.667 170.667-76.561 170.667-170.667-76.561-170.667-170.667-170.667zM887.467 627.2c-37.649 0-68.267-30.618-68.267-68.267s30.618-68.267 68.267-68.267 68.267 30.618 68.267 68.267-30.618 68.267-68.267 68.267zM887.467 524.8c-18.825 0-34.133 15.309-34.133 34.133s15.309 34.133 34.133 34.133 34.133-15.309 34.133-34.133-15.309-34.133-34.133-34.133z" />
<glyph unicode="&#xe92a;" glyph-name="picture" d="M1003.162 767.52c-11.506 0-20.838-9.332-20.838-20.838v-769.005h-940.647v940.647h961.485c11.506 0 20.838 9.332 20.838 20.838s-9.332 20.838-20.838 20.838h-982.323c-11.506 0-20.838-9.332-20.838-20.838v-982.323c0-11.506 9.332-20.838 20.838-20.838h982.323c11.506 0 20.838 9.332 20.838 20.838v789.844c0 11.51-9.332 20.838-20.838 20.838zM135.866 844.973c-11.506 0-20.838-9.332-20.838-20.838v-603.817c0-11.506 9.332-20.838 20.838-20.838h752.269c11.506 0 20.838 9.332 20.838 20.838v603.817c0 11.506-9.332 20.838-20.838 20.838h-752.269zM156.704 803.296h710.592v-531.341l-217.791 217.791c-8.134 8.141-21.335 8.141-29.465 0l-60.157-60.153-107.373 107.369c-8.134 8.141-21.335 8.141-29.465 0l-206.646-206.646c-8.141-8.137-8.141-21.331 0-29.465 8.134-8.141 21.335-8.141 29.465 0l191.914 191.91 107.373-107.369c8.134-8.141 21.335-8.141 29.465 0l60.157 60.153 204.389-204.389h-682.457v562.14z" />
<glyph unicode="&#xe92b;" glyph-name="placeholder" d="M517.926 514.963c64.603 0 117.185 52.583 117.185 117.185s-52.583 117.185-117.185 117.185-117.185-52.583-117.185-117.185 52.566-117.185 117.185-117.185zM517.926 715.852c46.154 0 83.704-37.55 83.704-83.704s-37.55-83.704-83.704-83.704-83.704 37.55-83.704 83.704 37.55 83.704 83.704 83.704zM840.655 330.815h-119.881l51.009 73.659c96.343 128.419 82.398 339.503-29.815 451.7-60.618 60.635-141.242 94.033-227.005 94.033-85.746 0-166.37-33.398-227.005-94.033-112.213-112.197-126.159-323.298-30.2-451.197l51.361-74.178h-125.773l-183.345-385.021h1024l-183.345 385.038zM284.928 424.563c-87.035 116.064-74.563 306.691 26.718 407.956 54.307 54.307 126.527 84.223 203.334 84.223s149.010-29.916 203.334-84.223c101.282-101.265 113.754-291.909 26.333-408.458l-229.683-331.685-230.035 332.187zM204.505 297.333h127.799l182.659-263.784 182.642 263.784h121.89l151.471-318.075h-917.93l151.471 318.075z" />
<glyph unicode="&#xe92c;" glyph-name="plus" d="M874.223 85.777c199.703 199.703 199.703 524.743 0 724.446s-524.743 199.703-724.446 0-199.703-524.743 0-724.446 524.743-199.703 724.446 0zM185.916 774.084c179.858 179.858 472.31 179.858 652.168 0s179.858-472.31 0-652.168-472.31-179.858-652.168 0-179.649 472.31 0 652.168zM512 256.235c7.102 0 13.369 2.925 18.174 7.52 4.596 4.596 7.52 11.071 7.52 18.174v140.586h140.586c7.102 0 13.369 2.925 18.174 7.52 4.596 4.596 7.52 11.071 7.52 18.174 0 14.205-11.489 25.694-25.485 25.485h-140.586v140.586c0 14.205-11.489 25.694-25.485 25.485-14.205 0-25.694-11.489-25.485-25.485v-140.586h-140.586c-14.205 0-25.694-11.489-25.485-25.485 0-14.205 11.489-25.694 25.485-25.485h140.586v-140.586c-0.627-14.414 10.863-25.903 25.067-25.903z" />
<glyph unicode="&#xe92e;" glyph-name="right-chevron" d="M407.732 960l-53.402-53.226 457.281-458.774-457.281-458.774 53.402-53.226 510.334 512zM159.334 960l-53.402-53.226 457.281-458.774-457.281-458.774 53.402-53.226 510.334 512z" />
<glyph unicode="&#xe92f;" glyph-name="round-delete-button" d="M511.98 960c-282.304 0-511.98-229.683-511.98-512s229.676-512 511.98-512c282.319 0 512.020 229.683 512.020 512s-229.701 512-512.020 512zM511.98 3.149c-245.284 0-444.831 199.562-444.831 444.851 0 245.292 199.544 444.849 444.831 444.849 245.304 0 444.867-199.56 444.867-444.849 0.003-245.289-199.562-444.851-444.867-444.851zM679.611 615.606c-13.115 13.115-34.36 13.115-47.475 0l-120.136-120.128-120.136 120.128c-13.115 13.115-34.365 13.115-47.48 0-13.115-13.107-13.115-34.371 0-47.478l120.12-120.128-120.136-120.131c-13.115-13.105-13.115-34.36 0-47.48 6.556-6.559 15.15-9.836 23.739-9.836s17.18 3.277 23.734 9.836l120.159 120.141 120.136-120.146c6.559-6.559 15.145-9.836 23.734-9.836 8.586 0 17.18 3.274 23.736 9.836 13.115 13.105 13.115 34.371 0 47.475l-120.131 120.141 120.136 120.128c13.115 13.107 13.115 34.363 0 47.478z" />
<glyph unicode="&#xe930;" glyph-name="school-bell" d="M534.258 670.608v0c0 12.288-9.971 22.262-22.259 22.262-135.034-0.002-244.869-109.836-244.869-244.871 0-12.288 9.974-22.259 22.262-22.259s22.262 9.971 22.262 22.259c0 110.458 89.889 200.348 200.348 200.348 12.286 0 22.257 9.974 22.257 22.262zM289.392-19.477c-135.034 0-244.869 109.836-244.869 244.869 0 12.288-9.974 22.262-22.262 22.262s-22.262-9.974-22.262-22.262c0-159.564 129.825-289.392 289.392-289.392 12.288 0 22.262 9.974 22.262 22.262s-9.974 22.262-22.262 22.262zM289.392 69.565v0c-85.928 0-155.827 69.9-155.827 155.827 0 12.288-9.974 22.262-22.262 22.262s-22.259-9.974-22.259-22.262c0-110.458 89.889-200.348 200.348-200.348 12.288 0 22.262 9.974 22.262 22.262s-9.974 22.259-22.262 22.259zM734.608 960c-12.288 0-22.262-9.974-22.262-22.262s9.974-22.259 22.262-22.259c135.034 0 244.869-109.834 244.869-244.871 0-12.288 9.974-22.262 22.262-22.262s22.262 9.974 22.262 22.262c-0.002 159.567-129.827 289.392-289.392 289.392zM890.433 670.608v0c0-12.288 9.974-22.262 22.262-22.262s22.262 9.974 22.262 22.262c0 110.458-89.889 200.348-200.348 200.348-12.288 0-22.262-9.974-22.262-22.262s9.974-22.259 22.262-22.259c85.926 0 155.825-69.898 155.825-155.827zM845.912 447.999c0 184.14-149.772 333.913-333.913 333.913s-333.913-149.772-333.913-333.913 149.772-333.913 333.913-333.913 333.913 149.772 333.913 333.913zM511.999 158.609c-159.564 0-289.392 129.825-289.392 289.39s129.825 289.392 289.392 289.392 289.392-129.825 289.392-289.392-129.825-289.39-289.392-289.39zM957.217 425.739c-36.82 0-66.783-29.962-66.783-66.783 0-22.706 11.754-42.874 30.142-54.806-35.082-128.579-136.147-229.598-264.68-264.682-11.933 18.344-32.145 30.098-54.851 30.098-36.82 0-66.783-29.962-66.783-66.783 0-12.288 9.974-22.262 22.262-22.262 29.875 0 60.549 3.473 91.135 10.195 0.267 0.046 0.488 0.046 0.755 0.090 159.477 35.395 285.385 161.301 320.78 320.778v0.044c6.812 30.766 10.285 61.707 10.285 91.847-0.002 12.29-9.974 22.264-22.262 22.264zM511.999 514.782c-36.82 0-66.783-29.962-66.783-66.783s29.962-66.783 66.783-66.783 66.783 29.962 66.783 66.783-29.962 66.783-66.783 66.783zM511.999 425.739c-12.288 0-22.262 9.971-22.262 22.259s9.974 22.262 22.262 22.262 22.262-9.974 22.262-22.262-9.974-22.259-22.262-22.259z" />
<glyph unicode="&#xe931;" glyph-name="search" d="M1001.337 68.039l-267.151 267.168c123.505 183.917 74.532 433.129-109.384 556.635s-433.129 74.53-556.635-109.387-74.532-433.129 109.384-556.635c135.251-90.823 311.999-90.823 447.25 0l267.151-267.168c30.205-30.205 79.18-30.205 109.384 0s30.207 79.18 0 109.387zM401.53 191.817c-202.408 0.226-366.435 164.254-366.661 366.661 0 202.502 164.16 366.661 366.661 366.661s366.661-164.16 366.661-366.661-164.16-366.661-366.661-366.661zM977.24-17.217c-8.111-8.118-19.12-12.675-30.595-12.671-11.473-0.034-22.484 4.521-30.578 12.654l-260.193 260.212 61.156 61.156 260.193-260.21c16.888-16.879 16.896-44.253 0.017-61.141zM410.518 890.912l-0.904-34.108c88.257-2.285 170.949-43.622 225.744-112.846l26.707 21.215c-61.068 77.123-153.205 123.179-251.547 125.739zM686.947 729.274l-29.248-17.549c6.355-10.559 12.051-21.499 17.054-32.761l31.107 13.78c-5.551 12.552-11.865 24.752-18.913 36.53z" />
<glyph unicode="&#xe932;" glyph-name="speedometer" d="M991.142 461.181c-158.164 0-257.403 0-415.567 0-4.652 24.81-23.259 43.417-48.069 49.62v234.144c0 9.304-6.203 15.505-15.505 15.505-9.304 0-15.505-6.203-15.505-15.505v-234.144c-24.81-6.203-43.417-24.81-48.069-49.62-158.164 0-258.954 0-415.567 0l-4.652-9.304c-1.551-4.652-3.101-9.304-3.101-13.955v-68.227c0-17.056 13.955-32.564 31.013-35.665l80.633-10.855c1.551 0 3.101-1.551 4.652-3.101 9.304-40.315 26.361-79.082 49.62-113.196-6.203-7.754-17.056-21.708-27.911-34.114l-23.259-29.462c-10.855-13.955-9.304-34.114 3.101-46.518l49.62-48.069c12.406-12.404 32.564-13.955 46.518-3.101l65.127 48.069c1.551 1.551 4.652 1.551 6.203 0 35.665-21.708 74.43-37.216 114.747-46.518 1.551 0 3.101-1.551 4.652-3.101l10.855-77.531c1.551-6.203 3.101-12.406 7.754-17.056 6.203-7.754 17.056-12.406 27.911-12.406h69.777c10.855 0 21.708 4.652 27.911 12.406 4.652 4.652 7.754 10.855 7.754 17.056l10.855 77.531c0 1.551 1.551 3.101 4.652 3.101 41.866 9.304 80.633 24.81 114.747 46.518 1.551 1.551 4.652 1.551 6.203 0l63.576-46.518c15.505-10.855 35.665-9.304 49.62 3.101l48.069 46.518c12.406 12.404 13.955 32.564 3.101 46.518l-49.62 62.026c-1.551 1.551-1.551 3.101 0 4.652 21.708 34.114 38.764 71.328 48.069 111.645 0 1.551 1.551 3.101 4.652 3.101l80.633 10.855c17.056 1.551 31.013 17.056 31.013 35.665v68.227c0 4.652-1.551 9.304-3.101 13.955l-3.112 7.754zM479.435 451.877c0 17.056 15.505 29.462 32.564 29.462 17.056 0 31.013-12.404 32.564-29.462v-4.652c-1.551-15.505-15.505-29.462-32.564-29.462-17.056 0-31.013 12.406-32.564 29.462v4.652zM311.969 430.168h139.557c7.754-24.81 32.564-43.417 60.475-43.417s52.721 18.607 60.475 43.417h139.557c1.551-9.304 1.551-17.056 1.551-26.361 0-106.993-89.937-193.829-201.58-193.829s-201.58 86.836-201.58 193.829c-0.004 9.304-0.004 17.056 1.547 26.361zM966.332 369.694v0c0-1.551-1.551-3.101-4.652-4.652l-80.633-10.855c-15.505-1.551-26.361-12.406-31.013-27.911-9.304-35.665-23.259-69.777-43.417-100.79-7.754-12.404-7.754-29.462 1.551-40.315l49.62-62.026c1.551-1.551 1.551-4.652 0-4.652l-48.069-46.518c-3.101-3.101-6.203-3.101-9.304 0l-63.576 46.518c-12.406 9.304-27.911 9.304-40.315 1.551-32.564-20.158-68.227-34.114-105.442-41.866-15.505-3.101-26.361-15.505-27.911-29.462l-10.855-77.531c0 0 0-1.551-1.551-1.551 0-3.101-1.551-3.101-3.101-3.101h-69.777c-1.551 0-3.101 0-4.652 1.551 0 1.551-1.551 1.551-1.551 1.551l-10.855 77.531c-1.551 13.955-13.955 26.361-27.911 29.462-37.216 7.754-72.879 23.259-105.442 41.866-12.404 7.754-29.462 6.203-40.315-1.551l-65.125-48.069c-1.551-1.551-4.652-1.551-7.754 0l-49.62 48.069c-1.551 1.551-1.551 3.101 0 4.652l23.259 29.462c15.505 18.607 29.462 37.216 34.114 41.866l1.551 1.551c3.101 6.203 3.101 13.955 0 18.607-23.259 34.114-40.315 71.328-49.62 111.645-3.101 15.505-15.505 24.81-31.013 27.911l-80.633 10.855c-3.101 0-4.652 1.551-4.652 4.652v58.924h223.291c-1.551-6.203-1.551-13.955-1.551-23.259 0-124.049 103.892-224.839 232.593-224.839s232.593 100.79 232.593 224.839c0 7.754 0 17.056-1.551 26.361h223.291v-60.475zM1023.706 560.421c-52.721 231.042-268.258 398.51-511.707 398.51s-458.983-167.468-511.704-396.96c-1.551-7.754 3.101-17.056 12.404-18.607 7.754-3.101 17.056 3.101 18.607 10.855 49.622 217.086 251.202 373.699 480.694 373.699s432.625-158.164 480.694-375.251c1.551-7.754 7.754-12.406 15.505-12.406 1.551 0 1.551 0 3.101 0 9.304 3.104 13.957 10.855 12.406 20.16zM511.999 814.722c9.304 0 15.505 6.203 15.505 15.505v51.173c0 9.304-6.203 15.505-15.505 15.505s-15.505-6.203-15.505-15.505v-52.721c0-7.754 6.203-13.957 15.505-13.957zM797.313 707.729l37.216 37.216c6.203 6.203 6.203 15.505 0 21.708s-15.505 6.203-21.708 0l-37.216-37.216c-6.203-6.203-6.203-15.505 0-21.708 6.203-6.201 15.507-6.201 21.708 0zM248.393 707.729c6.203 6.203 6.203 15.505 0 21.708l-37.216 37.216c-6.203 6.203-15.505 6.203-21.708 0s-6.203-15.505 0-21.708l37.216-37.216c4.652-6.201 15.505-6.201 21.708 0zM149.154 586.781c7.754-3.101 17.056 0 20.158 7.754s0 17.056-7.754 20.158l-49.62 20.158c-7.754 3.101-17.056 0-20.158-7.754s0-17.056 7.754-20.158l49.62-20.158zM681.018 791.463l21.708 48.069c3.101 7.754 0 17.056-7.754 20.158s-17.056 0-20.158-7.754l-21.708-48.069c-3.101-7.754 0-17.056 7.754-20.158 7.752-3.099 17.056 0.002 20.158 7.754zM361.589 783.711c7.754 3.101 10.855 12.404 7.754 20.158l-21.708 48.069c-3.101 7.754-12.404 10.855-20.158 7.754s-10.855-12.404-7.754-20.158l21.708-48.069c3.101-7.754 12.404-12.406 20.158-7.754zM873.296 588.332l49.62 21.708c7.754 3.101 10.855 12.404 7.754 20.158s-12.406 10.855-20.158 7.754l-48.069-20.158c-7.754-3.101-10.855-12.406-7.754-20.158 1.549-9.304 10.853-12.406 18.607-9.304z" />
<glyph unicode="&#xe933;" glyph-name="stopwatch" d="M539.887 311.654c17.766 1.382 33.963 10.445 44.476 24.9l159.795 220.911c4.898 6.775 4.164 16.128-1.775 22.067-5.939 5.922-15.292 6.656-22.067 1.775l-220.945-159.846c-14.404-10.479-23.467-26.675-24.849-44.442s5.052-35.157 17.63-47.735c11.452-11.469 26.897-17.818 42.957-17.818 1.587 0 3.174 0.068 4.779 0.188zM508.553 374.357c0.597 7.799 4.591 14.916 10.871 19.49l134.775 97.502-97.468-134.741c-4.608-6.332-11.725-10.308-19.524-10.923-7.765-0.512-15.394 2.185-20.941 7.731-5.495 5.513-8.329 13.158-7.714 20.941zM922.18 626.108c-0.171 0.358-0.171 0.734-0.358 1.092-0.205 0.341-0.529 0.529-0.751 0.853-17.254 29.594-37.666 57.122-60.843 82.074l36.659 36.642 24.132-24.132 72.397 72.414-72.397 72.397-72.414-72.397 24.149-24.149-36.659-36.642c-24.951 23.177-52.463 43.605-82.074 60.86-0.324 0.222-0.512 0.546-0.853 0.751-0.358 0.205-0.734 0.188-1.092 0.375-52.787 30.413-112.094 50.671-175.326 58.095v20.326h25.6c23.535 0 42.667 19.132 42.667 42.667s-19.149 42.667-42.684 42.667h-153.6c-23.535 0-42.667-19.132-42.667-42.667s19.132-42.667 42.667-42.667h25.6v-19.729c-18.432-1.963-36.83-4.966-55.023-9.131-9.182-2.099-14.933-11.264-12.817-20.446 2.099-9.182 11.264-14.95 20.446-12.817 15.701 3.601 31.556 6.315 47.445 8.141l18.313 1.417c5.598 0.427 10.752 0.734 15.77 0.973v-33.741c0-9.438 7.629-17.067 17.067-17.067s17.067 7.629 17.067 17.067v33.621c64.188-2.953 124.672-20.19 178.449-48.555l-16.828-29.133c-4.71-8.175-1.911-18.603 6.246-23.313 2.679-1.553 5.615-2.287 8.516-2.287 5.905 0 11.639 3.055 14.797 8.533l16.777 29.065c53.402-33.877 98.765-79.241 132.642-132.642l-29.065-16.777c-8.141-4.71-10.94-15.138-6.212-23.313 3.174-5.478 8.892-8.533 14.797-8.533 2.901 0 5.837 0.734 8.516 2.287l29.133 16.828c28.757-54.545 46.046-116.019 48.623-181.231h-33.707c-9.438 0-17.067-7.629-17.067-17.067s7.629-17.067 17.067-17.067h33.707c-2.577-65.212-19.866-126.686-48.623-181.231l-29.133 16.828c-8.158 4.71-18.603 1.946-23.313-6.246-4.71-8.175-1.911-18.603 6.246-23.313l29.065-16.777c-33.877-53.402-79.241-98.765-132.642-132.642l-16.777 29.065c-4.727 8.192-15.189 10.974-23.313 6.246-8.175-4.71-10.974-15.155-6.246-23.313l16.828-29.133c-53.777-28.365-114.261-45.602-178.449-48.555v33.587c0 9.438-7.629 17.067-17.067 17.067s-17.067-7.629-17.067-17.067v-33.724c-27.255 0.939-54.596 4.352-81.51 10.53-9.182 2.202-18.347-3.635-20.446-12.817-2.116-9.182 3.635-18.347 12.817-20.446 34.065-7.851 68.864-11.81 103.39-11.81 0.836 0 1.638 0.051 2.475 0.068 0.119 0 0.205-0.068 0.307-0.068 0.137 0 0.256 0.085 0.393 0.085 82.039 0.563 159.010 22.716 225.604 60.979 0.529 0.239 1.092 0.358 1.604 0.666 0.341 0.205 0.529 0.529 0.853 0.751 68.932 40.175 126.532 97.707 166.793 166.588 0.324 0.461 0.734 0.819 1.024 1.331 0.205 0.358 0.188 0.734 0.358 1.092 38.98 67.584 61.389 145.852 61.389 229.308s-22.409 161.724-61.372 229.308zM921.003 819.183l24.132-24.132-24.132-24.149-24.149 24.149 24.149 24.132zM508.467 857.242v51.558h-59.733c-4.693 0-8.533 3.84-8.533 8.533s3.84 8.533 8.533 8.533h153.6c4.693 0 8.533-3.84 8.533-8.533s-3.84-8.533-8.533-8.533h-59.733v-51.558c-5.939 0.239-11.605 0.358-17.067 0.358-0.478 0-1.024-0.034-1.502-0.034-0.427 0-0.853 0.034-1.28 0.034-2.799 0-5.598-0.188-8.397-0.239-1.98-0.051-3.84-0.034-5.888-0.119zM371.934 721.067h-85.333c-9.438 0-17.067-7.629-17.067-17.067s7.629-17.067 17.067-17.067h85.333c9.438 0 17.067 7.629 17.067 17.067s-7.629 17.067-17.067 17.067zM371.934 601.6h-170.667c-9.438 0-17.067-7.629-17.067-17.067s7.629-17.067 17.067-17.067h170.667c9.438 0 17.067 7.629 17.067 17.067s-7.629 17.067-17.067 17.067zM371.934 482.133h-256c-9.438 0-17.067-7.629-17.067-17.067s7.629-17.067 17.067-17.067h256c9.438 0 17.067 7.629 17.067 17.067s-7.629 17.067-17.067 17.067zM371.934 362.667h-324.267c-9.438 0-17.067-7.629-17.067-17.067s7.629-17.067 17.067-17.067h324.267c9.438 0 17.067 7.629 17.067 17.067s-7.629 17.067-17.067 17.067zM371.934 243.2h-221.867c-9.438 0-17.067-7.629-17.067-17.067s7.629-17.067 17.067-17.067h221.867c9.438 0 17.067 7.629 17.067 17.067s-7.629 17.067-17.067 17.067zM371.934 123.733h-119.467c-9.438 0-17.067-7.629-17.067-17.067s7.629-17.067 17.067-17.067h119.467c9.438 0 17.067 7.629 17.067 17.067s-7.629 17.067-17.067 17.067z" />
<glyph unicode="&#xe935;" glyph-name="suitcase" d="M1006.933 738.133h-324.267v119.467c0 9.425-7.642 17.067-17.067 17.067h-324.267c-9.425 0-17.067-7.642-17.067-17.067v-119.467h-307.2c-9.425 0-17.067-7.642-17.067-17.067v-682.667c0-9.425 7.642-17.067 17.067-17.067h989.867c9.425 0 17.067 7.642 17.067 17.067v682.667c0 9.425-7.642 17.067-17.067 17.067zM358.4 840.533h290.133v-102.4h-34.133v51.2c0 9.425-7.642 17.067-17.067 17.067h-187.733c-9.425 0-17.067-7.642-17.067-17.067v-51.2h-34.133v102.4zM580.267 772.267v-34.133h-153.6v34.133h153.6zM989.867 55.467h-955.733v368.401l39.134-39.134c3.2-3.2 7.539-5.001 12.066-5.001h341.333v-119.467c0-9.425 7.642-17.067 17.067-17.067h136.533c9.425 0 17.067 7.642 17.067 17.067v119.467h341.333c4.527 0 8.866 1.801 12.066 5.001l39.134 39.134v-368.401zM512 311.467c9.425 0 17.067 7.642 17.067 17.067v51.2h34.133v-102.4h-102.4v102.4h34.133v-51.2c0-9.425 7.642-17.067 17.067-17.067zM989.867 533.333v-61.201l-58.266-58.266h-839.202l-58.266 58.266v231.868h955.733v-170.667zM950.733 118.733l-34.133 34.133c-3.2 3.2-7.539 5.001-12.066 5.001h-785.067c-4.527 0-8.866-1.801-12.066-5.001l-34.133-34.133c-6.549-6.78-6.362-17.583 0.418-24.132 6.613-6.387 17.101-6.387 23.714 0l29.133 29.133h770.935l29.133-29.133c6.78-6.549 17.583-6.362 24.132 0.418 6.389 6.613 6.389 17.101 0 23.714z" />
<glyph unicode="&#xe936;" glyph-name="table-selection-cell" d="M969.919 927.54h-915.836c-29.87 0-54.083-24.208-54.083-54.083v-850.917c0-29.89 24.213-54.083 54.083-54.083h915.836c29.868 0 54.083 24.19 54.083 54.083v850.904c0 29.873-24.215 54.095-54.083 54.095zM192.91 33.354h-149.639v127.113h149.639v-127.113zM192.91 192.899h-149.639v162.237h149.639v-162.237zM192.91 387.611h-149.639v151.437h149.639v-151.437zM192.91 571.503h-149.639v132.498h149.639v-132.498zM403.844 33.354h-178.489v127.113h178.489v-127.113zM403.844 192.899h-178.489v162.237h178.489v-162.237zM403.844 387.611h-178.489v151.437h178.489v-151.437zM403.844 571.503h-178.489v132.498h178.489v-132.498zM598.545 33.354h-162.264v127.113h162.264v-127.113zM598.545 192.899h-162.264v162.237h162.264v-162.237zM598.545 387.611h-162.264v151.437h162.264v-151.437zM598.545 571.503h-162.264v132.498h162.264v-132.498zM782.415 33.354h-151.432v127.113h151.432v-127.113zM782.415 192.899h-151.432v162.237h151.432v-162.237zM782.415 387.611h-151.432v151.437h151.432v-151.437zM782.415 571.503h-151.432v132.498h151.432v-132.498zM980.729 33.354h-165.851v127.113h165.851v-127.113zM980.729 192.899h-165.851v162.237h165.851v-162.237zM980.729 387.611h-165.851v151.437h165.851v-151.437zM980.729 571.503h-165.851v132.498h165.851v-132.498zM265.264 425.86l35.823 35.818-35.823 35.825 12.481 12.483 35.828-35.828 35.84 35.828 12.481-12.483-35.847-35.825 35.847-35.818-12.481-12.495-35.84 35.837-35.828-35.837-12.481 12.495z" />
<glyph unicode="&#xe937;" glyph-name="tools" d="M1021.816 183.038c-8.598 28.208-24.057 53.842-44.997 74.605-33.351 33.536-78.734 52.333-126.029 52.204-24.171-0.012-48.091-4.916-70.319-14.414l-175.311 175.311 232.774 231.021 55.126 1.558c6.669 0.202 12.768 3.806 16.168 9.545l78.89 132.652c4.585 7.655 3.38 17.448-2.922 23.764l-68.177 68.177c-6.316 6.301-16.109 7.507-23.764 2.922l-132.652-78.89c-5.739-3.399-9.343-9.498-9.545-16.168l-1.558-54.931-232.19-231.8-159.338 159.338c16.73 97.003-48.344 189.202-145.348 205.932-44.945 7.753-91.155-2.021-129.112-27.31-8.912-6.026-11.252-18.135-5.225-27.047 1.695-2.505 3.949-4.582 6.589-6.068l88.435-49.282c19.479-11.103 23.375-44.217 7.597-72.267s-45.97-42.464-65.644-31.556l-82.007 44.412c-9.425 5.186-21.271 1.748-26.455-7.677-1.787-3.246-2.61-6.935-2.372-10.633 6.163-98.242 90.801-172.886 189.044-166.723 20.297 1.273 40.227 6.012 58.924 14.008l144.924-144.924-62.722-62.722-14.22 14.025c-15.741 15.065-40.553 15.065-56.294 0l-19.479-19.479c-14.841-14.449-15.78-37.982-2.143-53.567l-230.437-230.047c-15.544-14.875-16.087-39.538-1.213-55.082 0.394-0.414 0.799-0.818 1.213-1.213l65.839-65.839c14.875-15.544 39.538-16.087 55.082-1.213 0.414 0.394 0.818 0.799 1.213 1.213l230.632 230.437c15.586-13.638 39.119-12.698 53.567 2.143l19.479 19.479c15.544 14.875 16.087 39.538 1.213 55.082-0.394 0.414-0.799 0.818-1.213 1.213l-14.22 14.22 62.333 63.696 188.947-188.947c-16.323-97.074 49.136-188.998 146.21-205.321 57.497-9.669 116.088 9.396 156.884 51.047 7.154 8.035 6.443 20.346-1.592 27.502-2.075 1.848-4.522 3.231-7.173 4.054l-109.667 29.413c-10.748 3.455-19.255 11.746-22.985 22.401-5.698 14.69-6.382 30.85-1.948 45.97 8.181 30.582 34.088 52.399 55.905 46.555l108.498-29.219c1.743-0.253 3.516-0.253 5.259 0 10.757-0.131 19.584 8.483 19.713 19.24 0.037 3.199-0.711 6.36-2.184 9.199zM782.029 768.772c3.506 3.531 5.527 8.271 5.649 13.246l1.558 52.009 110.446 65.644 46.75-46.75-64.281-110.251-52.983-1.948c-4.974-0.122-9.715-2.143-13.246-5.649l-237.644-237.449-33.504 33.504 237.254 237.644zM106.497-7.467l-66.813 66.423 231.606 231.021 33.504-33.504 31.946-33.114-230.242-230.826zM391.475 226.281l-25.712 25.907-9.934 9.934-81.812 82.396 19.479 19.479 116.874-118.432-18.895-19.284zM395.176 315.106l-33.504 33.504 62.722 62.722 33.504-33.504-62.722-62.722zM900.072 221.411c-5.78 1.553-11.741 2.34-17.726 2.337-42.467-3.428-77.519-34.585-85.902-76.358-6.647-23.458-5.347-48.457 3.701-71.098 8.349-21.79 26.457-38.383 48.892-44.802l72.462-19.479c-66.078-39.374-151.564-17.728-190.938 48.347-18.493 31.033-24.203 68.035-15.929 103.2 1.483 6.54-0.504 13.385-5.259 18.115l-439.057 439.447c-6.233 5.856-15.556 6.961-22.985 2.727-20.115-10.614-42.513-16.165-65.255-16.168-58.605-0.051-110.953 36.64-130.899 91.746l44.412-24.738c10.353-5.797 22.028-8.817 33.893-8.766 36.065 2.077 68.323 23.136 84.734 55.32 26.491 47.334 16.168 103.628-22.79 125.445l-56.684 32.14c72.438 25.875 152.134-11.872 178.009-84.308 8.98-25.143 10.545-52.335 4.509-78.342-1.483-6.54 0.504-13.385 5.259-18.115l440.031-439.836c6.014-6.021 15.242-7.443 22.79-3.506 20.117 10.606 42.513 16.155 65.255 16.168 49.326 0.039 94.982-26.051 119.991-68.566l-70.514 19.089z" />
<glyph unicode="&#xe938;" glyph-name="twitter-social-badge" d="M1003.982 515.8l-83.27 110.793-24.786 136.349c-7.697 42.316-41.463 74.812-84.070 80.862l-137.21 19.47-113.933 78.89c-28.623 19.821-64.751 23.322-96.656 9.372-7.053-3.081-13.756-6.992-19.946-11.646l-110.785-83.261-136.359-24.786c-7.612-1.381-15.042-3.657-22.104-6.738-31.419-13.732-53.928-43.365-58.747-77.317l-19.46-137.207-78.897-113.955c-24.486-35.359-23.575-82.223 2.263-116.609l83.27-110.78 24.775-136.355c7.697-42.322 41.463-74.812 84.065-80.86l137.221-19.47 113.922-78.89c28.2-19.516 65.235-23.127 96.658-9.382 7.069 3.087 13.793 7.010 19.957 11.648l110.797 83.272 136.364 24.786c7.603 1.381 15.033 3.657 22.1 6.735 31.414 13.736 53.922 43.358 58.743 77.324l19.459 137.214 78.899 113.94c24.48 35.369 23.555 82.231-2.268 116.6zM511.997 83.64c-200.913 0-364.357 163.446-364.357 364.351 0 200.913 163.446 364.357 364.357 364.357s364.357-163.444 364.357-364.357c0-200.908-163.444-364.351-364.357-364.351zM511.997 777.995c-181.957 0-330.004-148.032-330.004-330.004 0-181.953 148.038-330.004 330.004-330.004s330 148.051 330 330.004c0 181.97-148.043 330.004-330 330.004zM620.553 209.011c-16.775 0-109.689 2.209-133.417 2.209-23.732 0-147.412 38.558-147.412 174.637 0 24.28-0.029 48.569-0.086 72.893-0.11 22.578-0.557 45.173-0.633 67.643-0.009 6.534-0.039 13.092-0.090 19.596-0.132 34.311-3.054 72.878 7.982 105.826 8.407 25.080 28.343 35.163 52.942 35.163 59.419 0 63.39-60.629 63.578-121.471h171.78c27.232 0 47.559-27.652 47.559-69.821 0-42.215-44.025-51.674-67.086-51.674h-154.176c-0.776-25.809-1.576-46.888-1.576-59.652 0-26.94 10.472-55.982 76.11-55.982h92.261c23.051 0 57.237-17.477 57.237-66.21-0.002-48.729-48.151-53.157-64.972-53.157z" />
<glyph unicode="&#xe939;" d="M1024 448.005c0-282.767-229.228-511.995-511.995-511.995s-511.995 229.228-511.995 511.995c0 282.767 229.228 511.995 511.995 511.995s511.995-229.228 511.995-511.995z" />
<glyph unicode="&#xe93a;" d="M825.62 592.044c-21.941-9.729-45.543-16.31-70.295-19.248 25.272 15.141 44.667 39.099 53.821 67.694-23.648-14.028-49.851-24.204-77.715-29.689-22.324 23.775-54.131 38.634-89.351 38.634-67.575 0-122.381-54.806-122.381-122.381 0-9.592 1.086-18.929 3.185-27.892-101.709 5.102-191.891 53.821-252.256 127.885-10.532-18.071-16.574-39.108-16.574-61.533 0-42.449 21.621-79.923 54.441-101.864-20.052 0.63-38.935 6.133-55.427 15.324-0.009-0.52-0.009-1.040-0.009-1.552 0-59.297 42.202-108.755 98.177-119.99-10.259-2.811-21.092-4.299-32.236-4.299-7.904 0-15.561 0.758-23.027 2.181 15.57-48.609 60.757-83.994 114.322-84.989-41.892-32.829-94.654-52.388-152.007-52.388-9.857 0-19.623 0.575-29.178 1.716 54.131-34.737 118.475-54.989 187.583-54.989 225.103 0 348.206 186.479 348.206 348.215 0 5.303-0.119 10.587-0.356 15.826 23.93 17.25 44.676 38.798 61.077 63.34v0z" />
<glyph unicode="&#xe93b;" glyph-name="up-chevron" d="M511.999 747.611l458.773-457.28 53.229 53.402-512.001 510.332-511.999-510.332 53.229-53.402zM0 95.336l53.229-53.402 458.77 457.28 458.773-457.28 53.229 53.402-512.001 510.332z" />
<glyph unicode="&#xe93c;" d="M1024 448c0-282.77-229.23-512-512-512s-512 229.23-512 512c0 282.77 229.23 512 512 512s512-229.23 512-512z" />
<glyph unicode="&#xe93d;" d="M934.524 158.879c-11.599 112.834-106.92 200.845-222.826 200.845h-104.978c-13.312 0-24.099 10.787-24.099 24.099v11.388c0 10.293 6.691 19.103 16.331 22.722 102.471 38.524 172.632 206.636 158.385 325.438-13.453 112.128-104.625 202.487-216.841 215.040-9.128 1.024-18.167 1.518-27.101 1.554-0.282 0-0.565 0.018-0.847 0.018-136.757 0.3-247.72-110.468-247.72-247.155 0-106.355 67.213-260.502 161.457-295.353 9.234-3.407 15.095-12.588 15.095-22.44v-11.211c0-13.312-10.787-24.099-24.099-24.099h-104.978c-115.906 0-211.226-88.011-222.826-200.845 92.248-134.568 247.049-222.879 422.524-222.879s330.275 88.311 422.524 222.879z" />
<glyph unicode="&#xe93e;" d="M591.307 843.299c65.589-18.026 127.347-58.368 166.894-111.616-0.282 3.902-0.406 7.892-0.865 11.705-13.453 112.11-104.625 202.47-216.841 215.022-9.128 1.024-18.167 1.518-27.101 1.554-0.282 0-0.565 0.018-0.847 0.018-122.174 0.265-223.514-88.188-243.783-204.5h0.088c3.16-4.449 6.25-8.951 9.622-13.241 1.236 1.536 2.489 3.054 3.761 4.555 35.31 42.019 94.296 51.747 144.472 29.502 15.272-6.744 32.185-10.505 49.982-10.505 51.942 0 96.327 32.097 114.617 77.506z" />
<glyph unicode="&#xe93f;" d="M934.524 158.879c-11.599 112.834-106.92 200.845-222.826 200.845h-58.456l-141.241-141.241-141.241 141.241h-58.456c-115.906 0-211.226-88.011-222.826-200.845 92.248-134.568 247.049-222.879 422.524-222.879s330.275 88.311 422.524 222.879z" />
<glyph unicode="&#xe940;" d="M759.172-0.3c12.094 6.691 23.834 13.93 35.31 21.539v108.968h-35.31v-130.507z" />
<glyph unicode="&#xe941;" d="M264.828-0.3v130.507h-35.31v-108.968c11.476-7.609 23.217-14.848 35.31-21.539z" />
<glyph unicode="&#xe942;" glyph-name="worldwide" d="M512.181 959.893c-204.864 0.030-390.016-122.084-470.65-310.412l-6.382-2.116 2.474-7.422c-106.167-261.846 20.034-560.18 281.88-666.347 61.156-24.797 126.532-37.526 192.525-37.49 282.71-0.043 511.927 229.106 511.97 511.817s-229.106 511.93-511.819 511.97zM913.704 189.912l-26.286 26.269v61.188c0.030 2.641-0.555 5.251-1.706 7.627l-66.546 132.905v64.226c0 5.703-2.847 11.031-7.593 14.197l-51.189 34.126c-4.012 2.679-8.971 3.534-13.65 2.355l-62.69-15.664-105.296 45.183-14.487 101.491 40.15 40.132h86.186l29.007-43.596c2.619-3.92 6.746-6.584 11.398-7.354l102.379-17.063c2.743-0.461 5.554-0.237 8.19 0.648l94.291 31.43c79.085-151.766 70.626-334.3-22.156-478.1zM843.327 791.753l-27.745-18.496-77.347 15.476-50.183 16.705c-3.071 1.043-6.377 1.175-9.521 0.375l-63.441-15.852-27.813 9.265 20.612 41.224h57.707c2.647-0.002 5.258 0.61 7.627 1.792l59.038 29.519c40.657-21.222 78.059-48.165 111.064-80.009zM325.138 887.665l40.951-27.301c2.013-1.339 4.287-2.235 6.672-2.628l82.688-13.787-8.071-24.144-43.084-14.384c-3.858-1.284-7.132-3.903-9.231-7.388l-49.005-81.664-78.712-47.231-116.029-16.568c-8.41-1.188-14.664-8.382-14.674-16.875v-51.189c0-4.526 1.8-8.864 4.999-12.064l29.127-29.127v-29.314l-70.983 47.333-25.748 77.245c48.988 111.934 138.776 201.003 251.101 249.087zM276.559 328.217l-77.125 15.442-28.666 57.178v40.098l63.577 63.577 23.53-47.077c2.89-5.784 8.805-9.438 15.271-9.436h109.784l46.224-77.040c3.084-5.134 8.634-8.273 14.623-8.276h47.435l-11.944-59.84-64.601-64.601c-3.206-3.197-5.010-7.535-5.017-12.064v-42.658l-61.427-46.070c-4.296-3.223-6.825-8.28-6.825-13.65v-61.632l-21.227 7.030-29.963 74.941v167.355c0.002 8.109-5.705 15.101-13.65 16.722zM225.267 65.912c-160.882 120.698-228.919 329.243-170.17 521.596l14.179-42.521c1.194-3.598 3.553-6.697 6.706-8.805l85.060-56.701-19.401-19.418c-3.199-3.199-4.999-7.538-4.999-12.064v-51.189c-0.002-2.647 0.61-5.258 1.792-7.627l34.126-68.252c2.363-4.714 6.772-8.071 11.944-9.095l71.665-14.316v-156.656c-0.002-2.167 0.41-4.317 1.211-6.33l34.126-85.316c1.868-4.66 5.695-8.263 10.46-9.845l51.189-17.063c1.711-0.58 3.502-0.879 5.307-0.887 9.423 0 17.063 7.64 17.063 17.063v76.784l61.427 46.070c4.296 3.223 6.825 8.28 6.825 13.65v44.125l63.253 63.253c2.378 2.382 3.999 5.418 4.658 8.719l17.063 85.316c1.847 9.242-4.146 18.23-13.388 20.077-1.098 0.22-2.214 0.331-3.334 0.331h-58.595l-46.224 77.040c-3.084 5.134-8.634 8.273-14.623 8.276h-108.897l-29.314 58.817c-2.455 4.91-7.122 8.34-12.541 9.214-5.418 0.936-10.948-0.851-14.794-4.778l-22.148-22.063v27.062c0 4.526-1.8 8.864-4.999 12.064l-29.127 29.127v29.331l104.802 14.964c2.25 0.326 4.415 1.098 6.365 2.269l85.316 51.189c2.393 1.438 4.398 3.442 5.836 5.836l47.947 79.907 45.2 15.084c5.104 1.674 9.11 5.678 10.784 10.784l17.063 51.189c2.956 8.947-1.9 18.599-10.848 21.555-0.825 0.273-1.672 0.482-2.53 0.627l-98.761 16.466-17.353 11.569c107.376 34.95 223.674 30.624 328.158-12.2l-31.174-15.562h-64.226c-6.499 0.036-12.452-3.624-15.357-9.436l-34.126-68.252c-4.204-8.433-0.776-18.68 7.657-22.884 0.719-0.358 1.461-0.665 2.222-0.919l51.189-17.063c3.071-1.043 6.377-1.175 9.521-0.375l63.441 15.852 46.48-15.476c0.665-0.239 1.35-0.422 2.048-0.546l85.316-17.063c4.436-0.904 9.052 0.004 12.814 2.525l38.836 25.902c19.113-21.288 36.289-44.238 51.326-68.577l-83.951-27.984-90.895 15.152-30.031 45.047c-3.148 4.72-8.438 7.565-14.111 7.593h-102.379c-4.526 0-8.864-1.8-12.064-4.999l-51.189-51.189c-3.801-3.799-5.59-9.167-4.829-14.487l17.063-119.442c0.86-5.906 4.741-10.933 10.238-13.258l119.442-51.189c3.421-1.482 7.239-1.787 10.852-0.87l60.932 15.237 37.249-24.878v-59.124c-0.030-2.641 0.555-5.251 1.706-7.627l66.546-132.905v-64.226c0-4.526 1.8-8.864 4.999-12.064l35.696-35.713c-158.309-211.013-457.707-253.739-668.72-95.428z" />
</font>
</defs>
</svg>
